<svg width="1440" height="796" viewBox="0 0 1440 796" fill="none" xmlns="http://www.w3.org/2000/svg">
<mask id="path-1-inside-1_801_8565" fill="white">
<path d="M1172 20C1172 17.7909 1173.79 16 1176 16H1264C1266.21 16 1268 17.7909 1268 20V108C1268 110.209 1266.21 112 1264 112H1176C1173.79 112 1172 110.209 1172 108V20Z"/>
</mask>
<path d="M1176 19H1264V13H1176V19ZM1265 20V108H1271V20H1265ZM1264 109H1176V115H1264V109ZM1175 108V20H1169V108H1175ZM1176 109C1175.45 109 1175 108.552 1175 108H1169C1169 111.866 1172.13 115 1176 115V109ZM1265 108C1265 108.552 1264.55 109 1264 109V115C1267.87 115 1271 111.866 1271 108H1265ZM1264 19C1264.55 19 1265 19.4477 1265 20H1271C1271 16.134 1267.87 13 1264 13V19ZM1176 13C1172.13 13 1169 16.134 1169 20H1175C1175 19.4477 1175.45 19 1176 19V13Z" fill="white" mask="url(#path-1-inside-1_801_8565)"/>
<mask id="path-3-inside-2_801_8565" fill="white">
<path d="M117 465C117 462.791 115.209 461 113 461H25C22.7909 461 21 462.791 21 465V553C21 555.209 22.7909 557 25 557H113C115.209 557 117 555.209 117 553V465Z"/>
</mask>
<path d="M113 464H25V458H113V464ZM24 465V553H18V465H24ZM25 554H113V560H25V554ZM114 553V465H120V553H114ZM113 554C113.552 554 114 553.552 114 553H120C120 556.866 116.866 560 113 560V554ZM24 553C24 553.552 24.4477 554 25 554V560C21.134 560 18 556.866 18 553H24ZM25 464C24.4477 464 24 464.448 24 465H18C18 461.134 21.134 458 25 458V464ZM113 458C116.866 458 120 461.134 120 465H114C114 464.448 113.552 464 113 464V458Z" fill="#5A9BFF" mask="url(#path-3-inside-2_801_8565)"/>
<mask id="path-5-inside-3_801_8565" fill="white">
<path d="M303 558C303 555.791 301.209 554 299 554H211C208.791 554 207 555.791 207 558V646C207 648.209 208.791 650 211 650H299C301.209 650 303 648.209 303 646V558Z"/>
</mask>
<path d="M299 557H211V551H299V557ZM210 558V646H204V558H210ZM211 647H299V653H211V647ZM300 646V558H306V646H300ZM299 647C299.552 647 300 646.552 300 646H306C306 649.866 302.866 653 299 653V647ZM210 646C210 646.552 210.448 647 211 647V653C207.134 653 204 649.866 204 646H210ZM211 557C210.448 557 210 557.448 210 558H204C204 554.134 207.134 551 211 551V557ZM299 551C302.866 551 306 554.134 306 558H300C300 557.448 299.552 557 299 557V551Z" fill="#5A9BFF" mask="url(#path-5-inside-3_801_8565)"/>
<mask id="path-7-inside-4_801_8565" fill="white">
<path d="M210 558C210 555.791 208.209 554 206 554H118C115.791 554 114 555.791 114 558V646C114 648.209 115.791 650 118 650H206C208.209 650 210 648.209 210 646V558Z"/>
</mask>
<path d="M206 557H118V551H206V557ZM117 558V646H111V558H117ZM118 647H206V653H118V647ZM207 646V558H213V646H207ZM206 647C206.552 647 207 646.552 207 646H213C213 649.866 209.866 653 206 653V647ZM117 646C117 646.552 117.448 647 118 647V653C114.134 653 111 649.866 111 646H117ZM118 557C117.448 557 117 557.448 117 558H111C111 554.134 114.134 551 118 551V557ZM206 551C209.866 551 213 554.134 213 558H207C207 557.448 206.552 557 206 557V551Z" fill="#5A9BFF" mask="url(#path-7-inside-4_801_8565)"/>
<mask id="path-9-inside-5_801_8565" fill="white">
<path d="M117 558C117 555.791 115.209 554 113 554H25C22.7909 554 21 555.791 21 558V646C21 648.209 22.7909 650 25 650H113C115.209 650 117 648.209 117 646V558Z"/>
</mask>
<path d="M113 557H25V551H113V557ZM24 558V646H18V558H24ZM25 647H113V653H25V647ZM114 646V558H120V646H114ZM113 647C113.552 647 114 646.552 114 646H120C120 649.866 116.866 653 113 653V647ZM24 646C24 646.552 24.4477 647 25 647V653C21.134 653 18 649.866 18 646H24ZM25 557C24.4477 557 24 557.448 24 558H18C18 554.134 21.134 551 25 551V557ZM113 551C116.866 551 120 554.134 120 558H114C114 557.448 113.552 557 113 557V551Z" fill="#5A9BFF" mask="url(#path-9-inside-5_801_8565)"/>
<mask id="path-11-inside-6_801_8565" fill="white">
<path d="M1174 358C1174 355.791 1175.79 354 1178 354H1266C1268.21 354 1270 355.791 1270 358V446C1270 448.209 1268.21 450 1266 450H1178C1175.79 450 1174 448.209 1174 446V358Z"/>
</mask>
<path d="M1178 357H1266V351H1178V357ZM1267 358V446H1273V358H1267ZM1266 447H1178V453H1266V447ZM1177 446V358H1171V446H1177ZM1178 447C1177.45 447 1177 446.552 1177 446H1171C1171 449.866 1174.13 453 1178 453V447ZM1267 446C1267 446.552 1266.55 447 1266 447V453C1269.87 453 1273 449.866 1273 446H1267ZM1266 357C1266.55 357 1267 357.448 1267 358H1273C1273 354.134 1269.87 351 1266 351V357ZM1178 351C1174.13 351 1171 354.134 1171 358H1177C1177 357.448 1177.45 357 1178 357V351Z" fill="white" mask="url(#path-11-inside-6_801_8565)"/>
<mask id="path-13-inside-7_801_8565" fill="white">
<path d="M1174 451C1174 448.791 1175.79 447 1178 447H1266C1268.21 447 1270 448.791 1270 451V539C1270 541.209 1268.21 543 1266 543H1178C1175.79 543 1174 541.209 1174 539V451Z"/>
</mask>
<path d="M1178 450H1266V444H1178V450ZM1267 451V539H1273V451H1267ZM1266 540H1178V546H1266V540ZM1177 539V451H1171V539H1177ZM1178 540C1177.45 540 1177 539.552 1177 539H1171C1171 542.866 1174.13 546 1178 546V540ZM1267 539C1267 539.552 1266.55 540 1266 540V546C1269.87 546 1273 542.866 1273 539H1267ZM1266 450C1266.55 450 1267 450.448 1267 451H1273C1273 447.134 1269.87 444 1266 444V450ZM1178 444C1174.13 444 1171 447.134 1171 451H1177C1177 450.448 1177.45 450 1178 450V444Z" fill="white" mask="url(#path-13-inside-7_801_8565)"/>
<mask id="path-15-inside-8_801_8565" fill="white">
<path d="M1267 265C1267 262.791 1268.79 261 1271 261H1359C1361.21 261 1363 262.791 1363 265V353C1363 355.209 1361.21 357 1359 357H1271C1268.79 357 1267 355.209 1267 353V265Z"/>
</mask>
<path d="M1271 264H1359V258H1271V264ZM1360 265V353H1366V265H1360ZM1359 354H1271V360H1359V354ZM1270 353V265H1264V353H1270ZM1271 354C1270.45 354 1270 353.552 1270 353H1264C1264 356.866 1267.13 360 1271 360V354ZM1360 353C1360 353.552 1359.55 354 1359 354V360C1362.87 360 1366 356.866 1366 353H1360ZM1359 264C1359.55 264 1360 264.448 1360 265H1366C1366 261.134 1362.87 258 1359 258V264ZM1271 258C1267.13 258 1264 261.134 1264 265H1270C1270 264.448 1270.45 264 1271 264V258Z" fill="white" mask="url(#path-15-inside-8_801_8565)"/>
<mask id="path-17-inside-9_801_8565" fill="white">
<path d="M1267 358C1267 355.791 1268.79 354 1271 354H1359C1361.21 354 1363 355.791 1363 358V446C1363 448.209 1361.21 450 1359 450H1271C1268.79 450 1267 448.209 1267 446V358Z"/>
</mask>
<path d="M1271 357H1359V351H1271V357ZM1360 358V446H1366V358H1360ZM1359 447H1271V453H1359V447ZM1270 446V358H1264V446H1270ZM1271 447C1270.45 447 1270 446.552 1270 446H1264C1264 449.866 1267.13 453 1271 453V447ZM1360 446C1360 446.552 1359.55 447 1359 447V453C1362.87 453 1366 449.866 1366 446H1360ZM1359 357C1359.55 357 1360 357.448 1360 358H1366C1366 354.134 1362.87 351 1359 351V357ZM1271 351C1267.13 351 1264 354.134 1264 358H1270C1270 357.448 1270.45 357 1271 357V351Z" fill="white" mask="url(#path-17-inside-9_801_8565)"/>
</svg>
