<svg width="24" height="24" viewBox="0 0 24 24" fill="none" xmlns="http://www.w3.org/2000/svg">
<g id="icon/close_mini">
<path id="Vector" d="M18 6.00006C17.8125 5.81259 17.5582 5.70728 17.293 5.70728C17.0278 5.70728 16.7735 5.81259 16.586 6.00006L12 10.5861L7.414 6.00006C7.22647 5.81259 6.97216 5.70728 6.707 5.70728C6.44184 5.70728 6.18753 5.81259 6 6.00006C5.81253 6.18759 5.70721 6.4419 5.70721 6.70706C5.70721 6.97223 5.81253 7.22653 6 7.41406L10.586 12.0001L6 16.5861C5.81253 16.7736 5.70721 17.0279 5.70721 17.2931C5.70721 17.5582 5.81253 17.8125 6 18.0001C6.18753 18.1875 6.44184 18.2928 6.707 18.2928C6.97216 18.2928 7.22647 18.1875 7.414 18.0001L12 13.4141L16.586 18.0001C16.7735 18.1875 17.0278 18.2928 17.293 18.2928C17.5582 18.2928 17.8125 18.1875 18 18.0001C18.1875 17.8125 18.2928 17.5582 18.2928 17.2931C18.2928 17.0279 18.1875 16.7736 18 16.5861L13.414 12.0001L18 7.41406C18.1875 7.22653 18.2928 6.97223 18.2928 6.70706C18.2928 6.4419 18.1875 6.18759 18 6.00006Z" fill="#797981"/>
</g>
</svg>
