<svg width="24" height="21" viewBox="0 0 24 21" fill="none" xmlns="http://www.w3.org/2000/svg">
<g id="Group">
<g id="Group_2">
<path id="Vector" d="M22.3233 7.05962H20.8106V5.54682C20.8106 4.6223 20.0585 3.87015 19.134 3.87015H17.6212V2.35749C17.6212 1.42993 16.8687 0.680817 15.9446 0.680817H1.67667C0.754453 0.680864 0 1.42758 0 2.35749V12.2637C0 13.1882 0.752156 13.9404 1.67667 13.9404H3.18937V15.4532C3.18937 16.3777 3.94153 17.1298 4.86605 17.1298H6.37875V18.6425C6.37875 19.567 7.13091 20.3192 8.05542 20.3192H22.3234C23.2479 20.3192 24 19.567 24 18.6425V8.73624C24 7.81177 23.2478 7.05962 22.3233 7.05962ZM14.7343 2.35515L8.81063 8.16048L2.88708 2.35529L14.7343 2.35515ZM1.67442 12.2637L1.67475 3.5116L8.22464 9.93062C8.55019 10.2497 9.07116 10.2496 9.39661 9.93062L15.9465 3.51155L15.9447 12.2659L1.67442 12.2637ZM4.8638 15.4531V13.9404H15.9447C16.8692 13.9404 17.6213 13.1882 17.6213 12.2637V5.54485L19.1362 5.54532C19.1362 5.54532 19.1362 5.54583 19.1362 5.54687L19.134 15.4553L4.8638 15.4531ZM22.3233 18.6447L8.05317 18.6424V17.1297H19.134C20.0586 17.1297 20.8107 16.3776 20.8107 15.4531V8.73427L22.3256 8.7347C22.3256 8.7347 22.3257 8.73521 22.3257 8.73624L22.3233 18.6447Z" fill="#B5B5B7"/>
</g>
</g>
</svg>
