<svg width="24" height="25" viewBox="0 0 24 25" fill="none" xmlns="http://www.w3.org/2000/svg">
<g id="telegram">
<path id="Vector" d="M22.2647 2.92772C21.98 2.69085 21.6364 2.53561 21.2704 2.47852C20.9045 2.42143 20.5299 2.46463 20.1866 2.60351L2.26566 9.83886C1.88241 9.99654 1.55618 10.267 1.33026 10.6145C1.10434 10.9619 0.989427 11.3698 1.00076 11.7841C1.0121 12.1984 1.14916 12.5994 1.39374 12.9339C1.63832 13.2685 1.97886 13.5207 2.37016 13.6572L5.99516 14.918L8.01566 21.5996C8.04312 21.6889 8.08297 21.7738 8.13404 21.852C8.14179 21.864 8.15272 21.8729 8.16096 21.8846C8.21996 21.9669 8.29127 22.0397 8.37239 22.1003C8.39546 22.1179 8.41755 22.1344 8.44221 22.15C8.53714 22.213 8.64228 22.2591 8.75294 22.2861L8.76478 22.2871L8.77149 22.29C8.83802 22.3035 8.90574 22.3104 8.97364 22.3105C8.98017 22.3105 8.98597 22.3074 8.99244 22.3073C9.0949 22.3055 9.19647 22.2878 9.29353 22.255C9.31611 22.2473 9.33546 22.2344 9.35737 22.2251C9.42975 22.1951 9.49832 22.1567 9.56166 22.1106C9.61238 22.0678 9.66312 22.0251 9.71388 21.9824L12.416 18.999L16.4463 22.1211C16.8011 22.3973 17.2379 22.5474 17.6875 22.5478C18.1587 22.5472 18.6154 22.3846 18.9809 22.0874C19.3465 21.7901 19.5987 21.3762 19.6954 20.915L22.958 4.89843C23.032 4.53795 23.0065 4.16415 22.8844 3.81702C22.7623 3.46989 22.5481 3.16249 22.2647 2.92772ZM9.37016 15.2363C9.2315 15.3744 9.13672 15.5504 9.0977 15.7422L8.78819 17.2462L8.00413 14.6531L12.0694 12.5362L9.37016 15.2363ZM17.6719 20.54L12.9092 16.8505C12.71 16.6966 12.46 16.6233 12.2092 16.6454C11.9583 16.6675 11.725 16.7833 11.5557 16.9697L10.6903 17.9249L10.9961 16.4384L18.0791 9.35543C18.2482 9.18659 18.3512 8.96278 18.3695 8.72455C18.3878 8.48632 18.3201 8.24941 18.1788 8.05675C18.0375 7.86408 17.8319 7.72839 17.5992 7.67426C17.3664 7.62014 17.122 7.65115 16.9102 7.76168L6.74491 13.0543L3.02055 11.6914L20.999 4.49899L17.6719 20.54Z" fill="#1D6BF3"/>
</g>
</svg>
